HIERARCHY
ROOT Hips
{
	OFFSET 13.171547 88.566324 22.590633
	CHANNELS 6 Xposition Yposition Zposition Zrotation Yrotation Xrotation 
	JOINT Spine
	{
		OFFSET -0.000000 8.814246 -2.080107
		CHANNELS 3 Zrotation Yrotation Xrotation
		JOINT Spine1
		{
			OFFSET 0.000001 8.844141 -0.000000
			CHANNELS 3 Zrotation Yrotation Xrotation
			JOINT Spine2
			{
				OFFSET -0.000000 11.682269 0.000000
				CHANNELS 3 Zrotation Yrotation Xrotation
				JOINT Spine3
				{
					OFFSET -0.000000 11.746700 -0.000001
					CHANNELS 3 Zrotation Yrotation Xrotation
					JOINT Neck
					{
						OFFSET -0.000000 17.658264 0.000000
						CHANNELS 3 Zrotation Yrotation Xrotation
						JOINT Neck1
						{
							OFFSET 0.000000 5.101515 -0.000000
							CHANNELS 3 Zrotation Yrotation Xrotation
							JOINT Head
							{
								OFFSET 0.000000 5.101514 -0.000000
								CHANNELS 3 Zrotation Yrotation Xrotation
								JOINT HeadEnd
								{
									OFFSET -0.000000 11.655084 -0.000001
									CHANNELS 3 Zrotation Yrotation Xrotation
									End Site
									{
										OFFSET 0.000000 0.000000 0.000000
									}
								}
							}
						}
					}
					JOINT RightShoulder
					{
						OFFSET -2.625389 11.175209 -0.000000
						CHANNELS 3 Zrotation Yrotation Xrotation
						JOINT RightArm
						{
							OFFSET 0.000000 10.434716 -0.000000
							CHANNELS 3 Zrotation Yrotation Xrotation
							JOINT RightForeArm
							{
								OFFSET 0.000000 29.628420 -0.000000
								CHANNELS 3 Zrotation Yrotation Xrotation
								JOINT RightHand
								{
									OFFSET 0.000000 22.857611 0.000000
									CHANNELS 3 Zrotation Yrotation Xrotation
									JOINT RightHandThumb1
									{
										OFFSET -2.867323 3.959563 2.944291
										CHANNELS 3 Zrotation Yrotation Xrotation
										JOINT RightHandThumb2
										{
											OFFSET -0.000000 3.350399 0.000001
											CHANNELS 3 Zrotation Yrotation Xrotation
											JOINT RightHandThumb3
											{
												OFFSET 0.000000 3.756509 -0.000000
												CHANNELS 3 Zrotation Yrotation Xrotation
												JOINT RightHandThumb4
												{
													OFFSET 0.000000 3.147345 0.000000
													CHANNELS 3 Zrotation Yrotation Xrotation
													End Site
													{
														OFFSET 0.000000 0.000000 0.000000
													}
												}
											}
										}
									}
									JOINT RightHandIndex1
									{
										OFFSET -0.086752 10.030894 2.345280
										CHANNELS 3 Zrotation Yrotation Xrotation
										JOINT RightHandIndex2
										{
											OFFSET -0.000000 4.061090 0.000001
											CHANNELS 3 Zrotation Yrotation Xrotation
											JOINT RightHandIndex3
											{
												OFFSET 0.000000 3.248873 0.000000
												CHANNELS 3 Zrotation Yrotation Xrotation
												JOINT RightHandIndex4
												{
													OFFSET 0.000000 2.639709 0.000001
													CHANNELS 3 Zrotation Yrotation Xrotation
													End Site
													{
														OFFSET 0.000000 0.000000 0.000000
													}
												}
											}
										}
									}
									JOINT RightHandMiddle1
									{
										OFFSET 0.104102 9.502952 0.006768
										CHANNELS 3 Zrotation Yrotation Xrotation
										JOINT RightHandMiddle2
										{
											OFFSET -0.000000 4.568726 -0.000000
											CHANNELS 3 Zrotation Yrotation Xrotation
											JOINT RightHandMiddle3
											{
												OFFSET -0.000000 3.654981 0.000000
												CHANNELS 3 Zrotation Yrotation Xrotation
												JOINT RightHandMiddle4
												{
													OFFSET 0.000000 2.741236 0.000001
													CHANNELS 3 Zrotation Yrotation Xrotation
													End Site
													{
														OFFSET 0.000000 0.000000 0.000000
													}
												}
											}
										}
									}
									JOINT RightHandRing1
									{
										OFFSET 0.086752 8.921707 -2.267442
										CHANNELS 3 Zrotation Yrotation Xrotation
										JOINT RightHandRing2
										{
											OFFSET -0.000000 4.061090 -0.000000
											CHANNELS 3 Zrotation Yrotation Xrotation
											JOINT RightHandRing3
											{
												OFFSET 0.000000 3.654981 -0.000000
												CHANNELS 3 Zrotation Yrotation Xrotation
												JOINT RightHandRing4
												{
													OFFSET 0.000000 2.741236 0.000000
													CHANNELS 3 Zrotation Yrotation Xrotation
													End Site
													{
														OFFSET 0.000000 0.000000 0.000000
													}
												}
											}
										}
									}
									JOINT RightHandPinky1
									{
										OFFSET -0.173504 7.976997 -4.467199
										CHANNELS 3 Zrotation Yrotation Xrotation
										JOINT RightHandPinky2
										{
											OFFSET -0.000000 3.350399 0.000000
											CHANNELS 3 Zrotation Yrotation Xrotation
											JOINT RightHandPinky3
											{
												OFFSET 0.000001 2.842763 -0.000000
												CHANNELS 3 Zrotation Yrotation Xrotation
												JOINT RightHandPinky4
												{
													OFFSET 0.000000 2.639709 -0.000000
													CHANNELS 3 Zrotation Yrotation Xrotation
													End Site
													{
														OFFSET 0.000000 0.000000 0.000000
													}
												}
											}
										}
									}
									JOINT RightForeArmEnd
									{
										OFFSET 0.000001 0.000000 0.000000
										CHANNELS 3 Zrotation Yrotation Xrotation
										End Site
										{
											OFFSET 0.000000 0.000000 0.000000
										}
									}
								}
								JOINT RightArmEnd
								{
									OFFSET 0.000000 0.000000 0.000000
									CHANNELS 3 Zrotation Yrotation Xrotation
									End Site
									{
										OFFSET 0.000000 0.000000 0.000000
									}
								}
							}
						}
					}
					JOINT LeftShoulder
					{
						OFFSET 2.625389 11.175211 0.000000
						CHANNELS 3 Zrotation Yrotation Xrotation
						JOINT LeftArm
						{
							OFFSET -0.000000 10.813635 -0.000000
							CHANNELS 3 Zrotation Yrotation Xrotation
							JOINT LeftForeArm
							{
								OFFSET 0.000001 28.724781 0.000000
								CHANNELS 3 Zrotation Yrotation Xrotation
								JOINT LeftHand
								{
									OFFSET 0.644384 25.716167 -0.328871
									CHANNELS 3 Zrotation Yrotation Xrotation
									JOINT LeftHandThumb1
									{
										OFFSET 2.867323 3.959563 2.944291
										CHANNELS 3 Zrotation Yrotation Xrotation
										JOINT LeftHandThumb2
										{
											OFFSET -0.000000 3.350399 -0.000001
											CHANNELS 3 Zrotation Yrotation Xrotation
											JOINT LeftHandThumb3
											{
												OFFSET -0.000000 3.756510 -0.000000
												CHANNELS 3 Zrotation Yrotation Xrotation
												JOINT LeftHandThumb4
												{
													OFFSET 0.000000 3.100000 0.000000
													CHANNELS 3 Zrotation Yrotation Xrotation
													End Site
													{
														OFFSET 0.000000 0.000000 0.000000
													}
												}
											}
										}
									}
									JOINT LeftHandIndex1
									{
										OFFSET 0.086753 10.030893 2.345280
										CHANNELS 3 Zrotation Yrotation Xrotation
										JOINT LeftHandIndex2
										{
											OFFSET -0.000001 4.061090 0.000000
											CHANNELS 3 Zrotation Yrotation Xrotation
											JOINT LeftHandIndex3
											{
												OFFSET 0.000000 3.248873 -0.000000
												CHANNELS 3 Zrotation Yrotation Xrotation
												JOINT LeftHandIndex4
												{
													OFFSET -0.000000 2.639709 -0.000000
													CHANNELS 3 Zrotation Yrotation Xrotation
													End Site
													{
														OFFSET 0.000000 0.000000 0.000000
													}
												}
											}
										}
									}
									JOINT LeftHandMiddle1
									{
										OFFSET -0.104102 9.502952 0.006769
										CHANNELS 3 Zrotation Yrotation Xrotation
										JOINT LeftHandMiddle2
										{
											OFFSET 0.000000 4.568727 -0.000000
											CHANNELS 3 Zrotation Yrotation Xrotation
											JOINT LeftHandMiddle3
											{
												OFFSET 0.000000 3.654981 0.000000
												CHANNELS 3 Zrotation Yrotation Xrotation
												JOINT LeftHandMiddle4
												{
													OFFSET -0.000000 2.741236 -0.000000
													CHANNELS 3 Zrotation Yrotation Xrotation
													End Site
													{
														OFFSET 0.000000 0.000000 0.000000
													}
												}
											}
										}
									}
									JOINT LeftHandRing1
									{
										OFFSET -0.086752 8.921708 -2.267442
										CHANNELS 3 Zrotation Yrotation Xrotation
										JOINT LeftHandRing2
										{
											OFFSET 0.000001 4.061090 -0.000000
											CHANNELS 3 Zrotation Yrotation Xrotation
											JOINT LeftHandRing3
											{
												OFFSET 0.000000 3.654981 -0.000000
												CHANNELS 3 Zrotation Yrotation Xrotation
												JOINT LeftHandRing4
												{
													OFFSET -0.000000 2.741236 -0.000000
													CHANNELS 3 Zrotation Yrotation Xrotation
													End Site
													{
														OFFSET 0.000000 0.000000 0.000000
													}
												}
											}
										}
									}
									JOINT LeftHandPinky1
									{
										OFFSET 0.173504 7.976997 -4.467198
										CHANNELS 3 Zrotation Yrotation Xrotation
										JOINT LeftHandPinky2
										{
											OFFSET -0.000000 3.350399 -0.000000
											CHANNELS 3 Zrotation Yrotation Xrotation
											JOINT LeftHandPinky3
											{
												OFFSET -0.000000 2.842763 0.000000
												CHANNELS 3 Zrotation Yrotation Xrotation
												JOINT LeftHandPinky4
												{
													OFFSET -0.000000 2.639709 0.000000
													CHANNELS 3 Zrotation Yrotation Xrotation
													End Site
													{
														OFFSET 0.000000 0.000000 0.000000
													}
												}
											}
										}
									}
									JOINT LeftForeArmEnd
									{
										OFFSET 0.000000 -0.000000 0.000000
										CHANNELS 3 Zrotation Yrotation Xrotation
										End Site
										{
											OFFSET 0.000000 0.000000 0.000000
										}
									}
								}
								JOINT LeftArmEnd
								{
									OFFSET 0.000000 0.000000 0.000000
									CHANNELS 3 Zrotation Yrotation Xrotation
									End Site
									{
										OFFSET 0.000000 0.000000 0.000000
									}
								}
							}
						}
					}
				}
			}
		}
	}
	JOINT RightUpLeg
	{
		OFFSET -11.289943 -0.000000 0.000000
		CHANNELS 3 Zrotation Yrotation Xrotation
		JOINT RightLeg
		{
			OFFSET -0.000000 -38.200325 -0.000000
			CHANNELS 3 Zrotation Yrotation Xrotation
			JOINT RightFoot
			{
				OFFSET -0.000000 -39.900857 0.000000
				CHANNELS 3 Zrotation Yrotation Xrotation
				JOINT RightToeBase
				{
					OFFSET -0.000000 0.000000 15.261641
					CHANNELS 3 Zrotation Yrotation Xrotation
					JOINT RightToeBaseEnd
					{
						OFFSET -0.000000 0.000000 7.370709
						CHANNELS 3 Zrotation Yrotation Xrotation
						End Site
						{
							OFFSET 0.000000 0.000000 0.000000
						}
					}
				}
				JOINT RightLegEnd
				{
					OFFSET 0.000000 0.000000 -0.000000
					CHANNELS 3 Zrotation Yrotation Xrotation
					End Site
					{
						OFFSET 0.000000 0.000000 0.000000
					}
				}
			}
			JOINT RightUpLegEnd
			{
				OFFSET 0.000000 -0.000000 0.000000
				CHANNELS 3 Zrotation Yrotation Xrotation
				End Site
				{
					OFFSET 0.000000 0.000000 0.000000
				}
			}
		}
	}
	JOINT LeftUpLeg
	{
		OFFSET 11.315662 0.000000 -0.000000
		CHANNELS 3 Zrotation Yrotation Xrotation
		JOINT LeftLeg
		{
			OFFSET -0.000000 -38.200325 0.000000
			CHANNELS 3 Zrotation Yrotation Xrotation
			JOINT LeftFoot
			{
				OFFSET -0.000000 -39.900855 0.000000
				CHANNELS 3 Zrotation Yrotation Xrotation
				JOINT LeftToeBase
				{
					OFFSET 0.000000 0.000000 15.261641
					CHANNELS 3 Zrotation Yrotation Xrotation
					JOINT LeftToeBaseEnd
					{
						OFFSET 0.000000 -0.000000 7.539997
						CHANNELS 3 Zrotation Yrotation Xrotation
						End Site
						{
							OFFSET 0.000000 0.000000 0.000000
						}
					}
				}
				JOINT LeftLegEnd
				{
					OFFSET 0.000000 -0.000000 0.000001
					CHANNELS 3 Zrotation Yrotation Xrotation
					End Site
					{
						OFFSET 0.000000 0.000000 0.000000
					}
				}
			}
			JOINT LeftUpLegEnd
			{
				OFFSET -0.000000 -0.000000 0.000000
				CHANNELS 3 Zrotation Yrotation Xrotation
				End Site
				{
					OFFSET 0.000000 0.000000 0.000000
				}
			}
		}
	}
}
MOTION
Frames: 4
Frame Time: 0.016667
37.437477 86.146632 0.258277 3.750014 -27.336205 -14.091250 -4.857441 0.263695 6.835949 -0.044524 -0.081342 3.373360 0.892655 -0.477916 2.402741 2.010124 -0.552079 3.001261 -3.297656 11.550081 12.020778 3.322332 10.949458 0.735042 -1.291315 1.119569 -18.753437 0.000006 -0.000006 0.000002 86.130211 0.244430 4.451628 59.417545 18.615051 3.290067 0.340082 15.703422 84.286423 -54.869503 -13.428760 12.804176 14.479171 32.094116 67.695801 -1.725696 -1.850527 -3.583108 -1.212467 -1.280794 -2.500308 0.000000 0.000019 0.000002 -25.804316 13.172551 19.374062 -0.222516 -0.602175 0.014816 -0.224384 -0.108093 0.011089 -0.000000 0.000008 -0.000000 -27.339069 8.223927 15.264007 -0.261304 -0.616615 0.007160 -0.270084 -0.104276 0.012349 0.000003 -0.000003 0.000020 -27.405727 0.014141 10.930701 -0.045405 1.111497 -0.012841 -0.051194 0.100564 -0.013265 0.000000 0.000001 0.000053 -25.313620 -9.008584 7.989997 -0.302575 2.111880 -0.007783 -0.308905 0.090789 -0.005181 0.000035 0.000003 0.000002 -0.000003 -0.000000 -0.000004 0.000003 0.000000 0.000001 -85.178070 -0.726931 7.266018 -60.132401 -26.019974 -7.361840 -3.684184 -28.317190 88.564964 60.370728 23.380917 21.172333 -16.312595 -31.301506 65.625069 4.387111 5.313060 -9.638784 3.154782 3.610164 -6.746881 0.000004 0.000008 -0.000065 18.410912 5.490480 13.847425 0.219904 -0.617219 0.015508 0.230865 -0.110172 0.012245 0.000000 -0.000067 0.000005 17.378216 0.557418 9.468204 0.194078 -0.649437 -0.034378 0.205230 -0.127080 -0.036245 -0.000011 0.000006 -0.000004 16.871235 -7.491283 3.839889 0.220019 1.094622 0.014200 0.231285 0.093837 0.020237 0.000017 -0.000015 -0.000002 17.255785 -15.911614 -1.122632 0.037382 2.059772 0.036338 0.043721 0.065022 0.031857 0.000009 -0.000002 -0.000001 -0.000057 0.000016 0.000018 0.000010 -0.000008 -0.000011 -14.292281 10.206359 -7.183427 -0.456597 -0.978190 26.728298 2.902489 -8.428684 18.804714 -2.068174 -0.068530 -21.950630 0.000001 -0.000033 0.000001 -0.000002 -0.000005 0.000035 0.000002 0.000002 0.000009 -5.175056 21.591640 11.593089 -0.072349 -0.037544 14.333557 3.900209 23.511602 10.412890 0.017152 -0.730606 -16.721336 0.000003 0.000001 0.000005 -0.000052 -0.000004 -0.000016 -0.000001 0.000007 0.000010 
37.437477 86.146632 0.258277 3.750014 -27.336205 -14.091250 -4.857441 0.263695 6.835949 -0.044524 -0.081342 3.373360 0.892655 -0.477916 2.402741 2.010124 -0.552079 3.001261 -3.297656 11.550081 12.020778 3.322332 10.949458 0.735042 -1.291315 1.119569 -18.753437 0.000006 -0.000006 0.000002 86.130211 0.244430 4.451628 59.417545 18.615051 3.290067 0.340082 15.703422 84.286423 -54.869503 -13.428760 12.804176 14.479171 32.094116 67.695801 -1.725696 -1.850527 -3.583108 -1.212467 -1.280794 -2.500308 0.000000 0.000019 0.000002 -25.804316 13.172551 19.374062 -0.222516 -0.602175 0.014816 -0.224384 -0.108093 0.011089 -0.000000 0.000008 -0.000000 -27.339069 8.223927 15.264007 -0.261304 -0.616615 0.007160 -0.270084 -0.104276 0.012349 0.000003 -0.000003 0.000020 -27.405727 0.014141 10.930701 -0.045405 1.111497 -0.012841 -0.051194 0.100564 -0.013265 0.000000 0.000001 0.000053 -25.313620 -9.008584 7.989997 -0.302575 2.111880 -0.007783 -0.308905 0.090789 -0.005181 0.000035 0.000003 0.000002 -0.000003 -0.000000 -0.000004 0.000003 0.000000 0.000001 -85.178070 -0.726931 7.266018 -60.132401 -26.019974 -7.361840 -3.684184 -28.317190 88.564964 60.370728 23.380917 21.172333 -16.312595 -31.301506 65.625069 4.387111 5.313060 -9.638784 3.154782 3.610164 -6.746881 0.000004 0.000008 -0.000065 18.410912 5.490480 13.847425 0.219904 -0.617219 0.015508 0.230865 -0.110172 0.012245 0.000000 -0.000067 0.000005 17.378216 0.557418 9.468204 0.194078 -0.649437 -0.034378 0.205230 -0.127080 -0.036245 -0.000011 0.000006 -0.000004 16.871235 -7.491283 3.839889 0.220019 1.094622 0.014200 0.231285 0.093837 0.020237 0.000017 -0.000015 -0.000002 17.255785 -15.911614 -1.122632 0.037382 2.059772 0.036338 0.043721 0.065022 0.031857 0.000009 -0.000002 -0.000001 -0.000057 0.000016 0.000018 0.000010 -0.000008 -0.000011 -14.292281 10.206359 -7.183427 -0.456597 -0.978190 26.728298 2.902489 -8.428684 18.804714 -2.068174 -0.068530 -21.950630 0.000001 -0.000033 0.000001 -0.000002 -0.000005 0.000035 0.000002 0.000002 0.000009 -5.175056 21.591640 11.593089 -0.072349 -0.037544 14.333557 3.900209 23.511602 10.412890 0.017152 -0.730606 -16.721336 0.000003 0.000001 0.000005 -0.000052 -0.000004 -0.000016 -0.000001 0.000007 0.000010 
37.437477 86.146632 0.258277 3.750014 -27.336205 -14.091250 -4.857441 0.263695 6.835949 -0.044524 -0.081342 3.373360 0.892655 -0.477916 2.402741 2.010124 -0.552079 3.001261 -3.297656 11.550081 12.020778 3.322332 10.949458 0.735042 -1.291315 1.119569 -18.753437 0.000006 -0.000006 0.000002 86.130211 0.244430 4.451628 59.417545 18.615051 3.290067 0.340082 15.703422 84.286423 -54.869503 -13.428760 12.804176 14.479171 32.094116 67.695801 -1.725696 -1.850527 -3.583108 -1.212467 -1.280794 -2.500308 0.000000 0.000019 0.000002 -25.804316 13.172551 19.374062 -0.222516 -0.602175 0.014816 -0.224384 -0.108093 0.011089 -0.000000 0.000008 -0.000000 -27.339069 8.223927 15.264007 -0.261304 -0.616615 0.007160 -0.270084 -0.104276 0.012349 0.000003 -0.000003 0.000020 -27.405727 0.014141 10.930701 -0.045405 1.111497 -0.012841 -0.051194 0.100564 -0.013265 0.000000 0.000001 0.000053 -25.313620 -9.008584 7.989997 -0.302575 2.111880 -0.007783 -0.308905 0.090789 -0.005181 0.000035 0.000003 0.000002 -0.000003 -0.000000 -0.000004 0.000003 0.000000 0.000001 -85.178070 -0.726931 7.266018 -60.132401 -26.019974 -7.361840 -3.684184 -28.317190 88.564964 60.370728 23.380917 21.172333 -16.312595 -31.301506 65.625069 4.387111 5.313060 -9.638784 3.154782 3.610164 -6.746881 0.000004 0.000008 -0.000065 18.410912 5.490480 13.847425 0.219904 -0.617219 0.015508 0.230865 -0.110172 0.012245 0.000000 -0.000067 0.000005 17.378216 0.557418 9.468204 0.194078 -0.649437 -0.034378 0.205230 -0.127080 -0.036245 -0.000011 0.000006 -0.000004 16.871235 -7.491283 3.839889 0.220019 1.094622 0.014200 0.231285 0.093837 0.020237 0.000017 -0.000015 -0.000002 17.255785 -15.911614 -1.122632 0.037382 2.059772 0.036338 0.043721 0.065022 0.031857 0.000009 -0.000002 -0.000001 -0.000057 0.000016 0.000018 0.000010 -0.000008 -0.000011 -14.292281 10.206359 -7.183427 -0.456597 -0.978190 26.728298 2.902489 -8.428684 18.804714 -2.068174 -0.068530 -21.950630 0.000001 -0.000033 0.000001 -0.000002 -0.000005 0.000035 0.000002 0.000002 0.000009 -5.175056 21.591640 11.593089 -0.072349 -0.037544 14.333557 3.900209 23.511602 10.412890 0.017152 -0.730606 -16.721336 0.000003 0.000001 0.000005 -0.000052 -0.000004 -0.000016 -0.000001 0.000007 0.000010 
37.704548 85.595360 0.144784 4.595202 -28.911236 -15.357020 -4.649764 0.264889 7.044991 0.136551 -0.081983 3.565120 0.452031 0.019217 3.000603 1.186870 -0.406923 3.552729 -4.958418 12.116827 12.360003 3.231393 10.936779 0.811950 -1.317505 1.071052 -18.917452 0.000005 -0.000006 0.000002 86.673767 0.271632 5.361252 64.549637 12.077806 5.618315 0.275895 13.983938 75.513016 -51.364750 -8.386805 9.623415 14.378039 32.141983 67.817558 -1.566218 -1.666552 -3.241933 -1.098251 -1.152532 -2.259055 0.000000 0.000019 0.000001 -27.311195 13.331403 19.920523 -0.203456 -0.607957 0.012879 -0.206356 -0.113370 0.009285 -0.000000 0.000007 -0.000001 -28.791142 8.430382 15.668216 -0.223600 -0.621843 0.006643 -0.231365 -0.107610 0.011518 0.000001 -0.000003 0.000020 -28.628155 0.208096 11.150992 -0.006170 1.112477 -0.008958 -0.013300 0.100904 -0.011543 0.000001 0.000000 0.000053 -26.142216 -8.830341 7.967700 -0.307811 2.116685 -0.003788 -0.316113 0.094885 0.000001 0.000035 0.000003 0.000002 -0.000003 -0.000000 -0.000005 0.000004 0.000000 0.000001 -86.055954 -0.576042 7.432635 -62.855175 -22.418898 -5.558359 -4.214349 -29.385353 81.639061 54.400394 22.226656 16.943213 -16.046637 -31.415850 65.925240 4.004547 4.807675 -8.761559 2.875678 3.271106 -6.133470 0.000004 0.000007 -0.000065 20.537455 5.204019 13.958770 0.214832 -0.615834 0.018004 0.226902 -0.109372 0.014575 0.000000 -0.000067 0.000004 19.276571 0.245758 9.615573 0.203856 -0.653046 -0.033583 0.214342 -0.131569 -0.034442 -0.000010 0.000006 -0.000005 18.404259 -7.746063 4.258774 0.219951 1.099368 0.015680 0.231149 0.097179 0.019686 0.000016 -0.000016 -0.000001 18.348768 -16.072611 -0.711222 0.042292 2.069190 0.029114 0.047268 0.071802 0.024949 0.000009 -0.000002 -0.000001 -0.000057 0.000016 0.000018 0.000010 -0.000008 -0.000010 -14.165793 11.624574 -8.350716 -0.456662 -0.911254 29.633286 2.781247 -6.779709 16.888802 -1.952722 -0.119940 -21.883501 -0.000000 -0.000032 0.000001 -0.000002 -0.000004 0.000032 0.000002 0.000001 0.000009 -5.527917 22.209822 11.064169 -0.075105 -0.071719 17.310047 3.575782 24.449558 8.642200 -0.051480 -0.768937 -16.351166 0.000003 0.000002 0.000005 -0.000053 -0.000005 -0.000018 -0.000001 0.000005 0.000010 
